# xmcd
#
# Track frame offsets: 
#        150
#        22593
#        45450
#        64314
#        79223
#        104863
#        126301
#        159680
#        171438
#        213203
#        233993
#        254670
#
# Disc length: 4103 seconds
#
# Revision: 2
# Processed by: cddbd v1.5.2PL0 Copyright (c) Steve Scherf et al.
# Submitted via: ExactAudioCopy v0.95a4
#
DISCID=ab10050c
DTITLE=Altmann Kade Niethammer Hildenbrand - Dr Blues der isch mei Hem
DTITLE=med
DYEAR=2004
DGENRE=Blues
TTITLE0=Blues am a Mondag
TTITLE1=Whiskybar
TTITLE2=Sterne die die Welt bedeuten
TTITLE3=Zu Fuß Blues
TTITLE4=Romtriale
TTITLE5=Nerven verlier'n
TTITLE6=Henna dieaba
TTITLE7=Heiße Würstchen
TTITLE8=Neckerblues
TTITLE9=Rundfunk
TTITLE10=Mir schaffet zamme
TTITLE11=Schneeschippen in Spitzbergen (Bonus-Track)
EXTD=Year: 2004
EXTT0=
EXTT1=
EXTT2=
EXTT3=
EXTT4=
EXTT5=
EXTT6=
EXTT7=
EXTT8=
EXTT9=
EXTT10=
EXTT11=
PLAYORDER=
